<svg width="100" height="80" viewBox="0 0 100 80" fill="none" xmlns="http://www.w3.org/2000/svg">
<g clip-path="url(#clip0_2_5)">
<path d="M7.5 7.48601H21.25C23.3281 7.48601 25 5.81725 25 3.743C25 1.66876 23.3281 0 21.25 0H5C2.23437 0 0 2.23021 0 4.99067V21.2104C0 23.2846 1.67187 24.9534 3.75 24.9534C5.82813 24.9534 7.5 23.2846 7.5 21.2104V7.48601ZM27.4688 34.9347C28.4537 34.9347 29.4289 34.7411 30.3389 34.3649C31.2488 33.9887 32.0756 33.4372 32.772 32.7421C33.4685 32.047 34.0209 31.2217 34.3978 30.3135C34.7748 29.4052 34.9688 28.4318 34.9688 27.4487C34.9688 26.4656 34.7748 25.4922 34.3978 24.5839C34.0209 23.6757 33.4685 22.8504 32.772 22.1553C32.0756 21.4601 31.2488 20.9087 30.3389 20.5325C29.4289 20.1563 28.4537 19.9627 27.4688 19.9627C26.4838 19.9627 25.5086 20.1563 24.5986 20.5325C23.6887 20.9087 22.8619 21.4601 22.1654 22.1553C21.469 22.8504 20.9166 23.6757 20.5397 24.5839C20.1627 25.4922 19.9687 26.4656 19.9687 27.4487C19.9687 28.4318 20.1627 29.4052 20.5397 30.3135C20.9166 31.2217 21.469 32.047 22.1654 32.7421C22.8619 33.4372 23.6887 33.9887 24.5986 34.3649C25.5086 34.7411 26.4838 34.9347 27.4688 34.9347ZM23.3281 39.9254C18.7344 39.9254 15 43.6528 15 48.238C15 50.5305 16.8594 52.4021 19.1719 52.4021H27.9375C29.1875 47.0839 33.0625 42.7794 38.125 40.9235C36.9531 40.2841 35.5937 39.9254 34.1719 39.9254H23.3281ZM80.8281 52.4021C83.125 52.4021 85 50.5461 85 48.238C85 43.6372 81.2656 39.9254 76.6719 39.9254H65.8281C64.3906 39.9254 63.0469 40.2841 61.875 40.9235C66.9375 42.7794 70.8125 47.0839 72.0625 52.4021H80.8281ZM66.8594 52.4021C65.5156 48.6123 62.1875 45.7582 58.125 45.072C57.5156 44.9628 56.8906 44.916 56.25 44.916H43.75C43.1094 44.916 42.4844 44.9628 41.875 45.072C37.8125 45.7582 34.4844 48.6123 33.1406 52.4021C32.7188 53.5717 32.5 54.835 32.5 56.1451C32.5 58.2193 34.1719 59.8881 36.25 59.8881H63.75C65.8281 59.8881 67.5 58.2193 67.5 56.1451C67.5 54.835 67.2812 53.5717 66.8594 52.4021ZM72.5 34.9347C73.4849 34.9347 74.4602 34.7411 75.3701 34.3649C76.2801 33.9887 77.1069 33.4372 77.8033 32.7421C78.4997 32.047 79.0522 31.2217 79.4291 30.3135C79.806 29.4052 80 28.4318 80 27.4487C80 26.4656 79.806 25.4922 79.4291 24.5839C79.0522 23.6757 78.4997 22.8504 77.8033 22.1553C77.1069 21.4601 76.2801 20.9087 75.3701 20.5325C74.4602 20.1563 73.4849 19.9627 72.5 19.9627C71.5151 19.9627 70.5398 20.1563 69.6299 20.5325C68.7199 20.9087 67.8931 21.4601 67.1967 22.1553C66.5003 22.8504 65.9478 23.6757 65.5709 24.5839C65.194 25.4922 65 26.4656 65 27.4487C65 28.4318 65.194 29.4052 65.5709 30.3135C65.9478 31.2217 66.5003 32.047 67.1967 32.7421C67.8931 33.4372 68.7199 33.9887 69.6299 34.3649C70.5398 34.7411 71.5151 34.9347 72.5 34.9347ZM60 29.944C60 27.2968 58.9464 24.758 57.0711 22.8862C55.1957 21.0143 52.6522 19.9627 50 19.9627C47.3478 19.9627 44.8043 21.0143 42.9289 22.8862C41.0536 24.758 40 27.2968 40 29.944C40 32.5912 41.0536 35.13 42.9289 37.0019C44.8043 38.8738 47.3478 39.9254 50 39.9254C52.6522 39.9254 55.1957 38.8738 57.0711 37.0019C58.9464 35.13 60 32.5912 60 29.944ZM78.75 7.48601H92.5V21.2104C92.5 23.2846 94.1719 24.9534 96.25 24.9534C98.3281 24.9534 100 23.2846 100 21.2104V4.99067C100 2.23021 97.7656 0 95 0H78.75C76.6719 0 75 1.66876 75 3.743C75 5.81725 76.6719 7.48601 78.75 7.48601ZM7.5 72.3647V58.6404C7.5 56.5661 5.82813 54.8974 3.75 54.8974C1.67187 54.8974 0 56.5661 0 58.6404V74.8601C0 77.6205 2.23437 79.8507 5 79.8507H21.25C23.3281 79.8507 25 78.182 25 76.1077C25 74.0335 23.3281 72.3647 21.25 72.3647H7.5ZM78.75 72.3647C76.6719 72.3647 75 74.0335 75 76.1077C75 78.182 76.6719 79.8507 78.75 79.8507H95C97.7656 79.8507 100 77.6205 100 74.8601V58.6404C100 56.5661 98.3281 54.8974 96.25 54.8974C94.1719 54.8974 92.5 56.5661 92.5 58.6404V72.3647H78.75Z" fill="black"/>
</g>
<defs>
<clipPath id="clip0_2_5">
<rect width="100" height="79.8507" fill="white"/>
</clipPath>
</defs>
</svg>
